<?xml version="1.0" encoding="UTF-8" standalone="no"?>
<!-- Created with Inkscape (http://www.inkscape.org/) -->

<svg
   xmlns:dc="http://purl.org/dc/elements/1.1/"
   xmlns:cc="http://creativecommons.org/ns#"
   xmlns:rdf="http://www.w3.org/1999/02/22-rdf-syntax-ns#"
   xmlns:svg="http://www.w3.org/2000/svg"
   xmlns="http://www.w3.org/2000/svg"
   xmlns:sodipodi="http://sodipodi.sourceforge.net/DTD/sodipodi-0.dtd"
   xmlns:inkscape="http://www.inkscape.org/namespaces/inkscape"
   width="32px"
   height="32px"
   id="svg3056"
   version="1.1"
   inkscape:version="0.48.4 r9939"
   sodipodi:docname="Nouveau document 3">
  <defs
     id="defs3058" />
  <sodipodi:namedview
     id="base"
     pagecolor="#ffffff"
     bordercolor="#666666"
     borderopacity="1.0"
     inkscape:pageopacity="0.0"
     inkscape:pageshadow="2"
     inkscape:zoom="11.197802"
     inkscape:cx="11.266928"
     inkscape:cy="12.249264"
     inkscape:current-layer="layer1"
     showgrid="true"
     inkscape:grid-bbox="true"
     inkscape:document-units="px"
     inkscape:window-width="965"
     inkscape:window-height="755"
     inkscape:window-x="22"
     inkscape:window-y="22"
     inkscape:window-maximized="0" />
  <metadata
     id="metadata3061">
    <rdf:RDF>
      <cc:Work
         rdf:about="">
        <dc:format>image/svg+xml</dc:format>
        <dc:type
           rdf:resource="http://purl.org/dc/dcmitype/StillImage" />
        <dc:title></dc:title>
      </cc:Work>
    </rdf:RDF>
  </metadata>
  <g
     id="layer1"
     inkscape:label="Layer 1"
     inkscape:groupmode="layer">
    <path
       style="fill:#020001;fill-rule:evenodd"
       inkscape:connector-curvature="0"
       id="path5"
       d="m 29.092093,27.112401 c -0.604624,-0.152844 -1.245814,-0.248725 -1.89473,-0.248725 -1.109335,0 -2.118758,0.211501 -2.863466,0.549902 -0.08085,0.04512 -0.139568,0.138745 -0.139568,0.245905 0,0.03837 0.0093,0.07839 0.02266,0.111108 0.08807,0.279746 -0.05717,0.583743 -0.777668,0.756892 -1.068137,0.256622 -1.743317,1.464151 -2.128546,1.865157 -0.453211,0.471506 -1.7325,0.760275 -1.540401,0.479402 0.150382,-0.219397 0.727196,-0.904661 1.077405,-1.644632 0.313127,-0.66214 0.592263,-0.849387 0.976977,-1.481634 0.112273,-0.184992 0.549003,-0.835852 0.676211,-1.349656 0.143689,-0.503655 0.09529,-1.133647 0.150384,-1.393652 0.07725,-0.373369 0.401194,-1.186661 0.424369,-1.645759 0.01443,-0.25775 -0.988307,0.371113 -1.464179,0.371113 -0.47587,0 -0.939896,-0.311892 -1.36478,-0.335018 -0.525828,-0.02763 -0.864191,0.444998 -1.341092,0.362655 -0.270897,-0.04851 -0.500592,-0.309638 -0.975434,-0.329378 -0.676211,-0.02877 -1.50332,0.411721 -3.056081,0.357013 -1.527527,-0.05527 -2.937629,-2.112753 -3.130758,-2.441002 -0.225576,-0.384649 -0.501622,-0.384649 -0.801359,-0.08347 -0.300767,0.301742 -0.671061,0.06599 -0.776639,-0.135359 -0.2003346,-0.384647 -0.7369768,-1.50814 -1.5656313,-1.741638 -1.1469318,-0.325993 -1.7273504,0.693724 -1.6531887,1.507014 0.077251,0.824009 0.5639382,1.055249 0.7889985,1.494607 0.2255753,0.438231 0.3414531,0.72136 0.7647929,0.916505 0.3007671,0.136488 0.4130398,0.340657 0.3234276,0.611379 -0.079313,0.234624 -0.3914091,0.28764 -0.597929,0.299484 -0.4372443,0.02312 -0.7426465,-0.1066 -0.9661615,-0.264521 C 7.0001363,23.76561 6.7889813,23.512938 6.5618611,23.085988 6.2997199,22.613353 5.8856502,22.407493 5.4051439,22.407493 c -0.2296953,0 -0.44497,0.06711 -0.6350097,0.175404 -0.7555231,0.428642 -1.6531887,0.684136 -2.6203816,0.684136 H 1.0594728 c -0.52994794,-1.724155 -0.81835452,-3.5707 -0.81835452,-5.491692 0,-9.4853944 7.02167422,-17.17500346 15.68417772,-17.17500346 8.661986,0 15.683145,7.68960906 15.683145,17.17500346 -5.14e-4,3.44267 -0.924446,6.647897 -2.516348,9.33706 l 0,0 z"
       clip-rule="evenodd" />
    <path
       style="fill:#020001;fill-rule:evenodd"
       inkscape:connector-curvature="0"
       id="path7"
       d="m 19.437447,26.263383 c 0.08276,0.08976 0.22419,0.39211 0.05133,0.778315 -0.09638,0.203141 -0.201143,0.34723 -0.388666,0.51553 -0.223666,0.203141 -0.662094,0.435808 -1.264477,0.0071 -0.322666,-0.232076 -0.342047,-0.308845 -0.788332,-0.244477 -0.319524,0.04724 -0.445762,-0.314752 -0.331572,-0.618282 0.115238,-0.299988 0.585619,-0.543286 1.172286,-0.158262 0.263477,0.175387 0.674142,0.544466 1.033476,0.216724 0.150333,-0.135232 0.238857,-0.22381 0.445762,-0.493681 0.01048,-0.01181 0.02305,-0.01831 0.03772,-0.01831 0.01257,0 0.02462,0.0058 0.03248,0.01535 l 0,0 z"
       clip-rule="evenodd" />
    <path
       style="fill:#e03127;fill-rule:evenodd"
       inkscape:connector-curvature="0"
       id="path9"
       d="m 24.92697,13.351509 c -0.157666,0.598795 -0.381857,1.361165 -1.378666,1.939291 -0.145619,0.08326 -0.20062,-0.05314 -0.134619,-0.183063 0.378191,-0.722214 0.443666,-0.903506 0.554191,-1.188732 0.152951,-0.41632 0.233095,-1.008619 -0.07177,-2.246364 C 23.296872,9.2390794 22.044444,5.9864571 21.135109,4.9300041 20.256682,3.9119349 18.666919,3.6255298 17.228538,4.0406705 16.698444,4.193617 15.663396,4.8012694 13.742063,4.3134941 10.416396,3.4696302 9.9250621,5.346326 9.7338717,6.1636145 9.543205,6.9814946 9.0843479,9.3058087 9.0843479,9.3058087 8.9319192,10.251243 8.731824,11.896451 13.894491,13.006051 c 2.405333,0.516121 2.527381,1.218257 2.633714,1.720797 0.190143,0.904096 0.495524,1.420807 0.839667,1.679458 0.34362,0.258651 0,0.471832 -0.381857,0.51612 C 15.961966,17.042304 12.176395,15.81814 9.9371097,14.38375 8.1043002,13.121204 8.0733954,11.984439 8.4940144,11.020109 5.725681,10.683508 3.6487765,11.31301 3.2721573,12.790509 c -0.6469049,2.533952 4.9437142,6.864877 11.3100957,9.036835 6.679619,2.281206 13.550429,0.689737 14.313619,-4.046291 0.347286,-2.148929 -1.259762,-3.739807 -3.968905,-4.429544 l 0,0 z"
       clip-rule="evenodd" />
    <path
       style="fill:#020001;fill-rule:evenodd"
       inkscape:connector-curvature="0"
       id="path11"
       d="m 31.2834,27.128506 h 0.108428 l 0.161333,0.301169 h 0.104762 L 31.4814,27.1226 c 0.09166,-0.01063 0.160809,-0.06555 0.160809,-0.188969 0,-0.137002 -0.07282,-0.198416 -0.217381,-0.198416 h -0.234143 v 0.69446 h 0.09271 v -0.301169 l 0,0 z m 0,-0.08918 v -0.21554 h 0.128333 c 0.06495,0 0.133048,0.01594 0.133048,0.101573 0,0.107475 -0.07019,0.113971 -0.149809,0.113971 H 31.2834 l 0,0 z"
       clip-rule="evenodd" />
    <path
       style="fill:#020001;fill-rule:evenodd"
       inkscape:connector-curvature="0"
       id="path13"
       d="m 31.997352,27.083626 c 0,0.374984 -0.269762,0.679106 -0.603952,0.679106 -0.333143,0 -0.603428,-0.304713 -0.603428,-0.679106 0,-0.377348 0.270285,-0.680289 0.603428,-0.680289 0.334714,-5.89e-4 0.603952,0.302941 0.603952,0.680289 l 0,0 z M 31.3934,26.523805 c -0.272905,0 -0.496049,0.249203 -0.496049,0.559231 0,0.310025 0.222619,0.558047 0.496049,0.558047 0.272905,0 0.497618,-0.248022 0.497618,-0.558047 0,-0.310028 -0.224713,-0.559231 -0.497618,-0.559231 l 0,0 z"
       clip-rule="evenodd" />
    <path
       style="fill:#020001;fill-rule:evenodd"
       inkscape:connector-curvature="0"
       id="path15"
       d="M 14.683352,8.7164629 C 12.841113,8.8670479 12.649399,9.0914477 12.304208,9.5059977 11.817589,10.09062 11.176971,8.7477613 11.176971,8.7477613 10.791447,8.6562336 10.32578,7.9570452 10.576685,7.3045128 10.824971,6.659067 11.28278,6.8521694 11.426304,7.0517677 c 0.174428,0.2450679 0.546333,0.6454458 1.030333,0.6312727 0.482953,-0.012986 1.041857,-0.1281439 1.820238,-0.1281439 0.787811,0 1.318952,0.3324663 1.34881,0.6159192 0.02567,0.2438876 -0.0639,0.4736031 -0.942333,0.5456472 l 0,0 z"
       clip-rule="evenodd" />
    <path
       style="fill:#020001;fill-rule:evenodd"
       inkscape:connector-curvature="0"
       id="path17"
       d="m 16.619352,5.2843196 c -0.0026,0 -0.0052,0 -0.0079,0 -0.02881,0 -0.05185,-0.024211 -0.05185,-0.05433 0,-0.021846 0.01205,-0.040161 0.02934,-0.049011 0.356714,-0.2125903 0.889952,-0.3826621 1.499143,-0.4529342 0.183333,-0.020673 0.361952,-0.031888 0.53481,-0.034254 0.03038,0 0.06024,0 0.09115,0.00122 1.021952,0.025982 1.84119,0.4848232 1.829143,1.0233838 -0.01258,0.5385606 -0.850143,0.9548826 -1.873667,0.9294893 -0.330524,-0.00941 -0.641667,-0.062593 -0.908285,-0.1505838 -0.03248,-0.0089 -0.05552,-0.038381 -0.05552,-0.073819 0,-0.036612 0.02305,-0.067326 0.05552,-0.076176 0.638523,-0.1659383 1.068571,-0.4381713 1.037666,-0.6962311 -0.03981,-0.3407341 -0.874238,-0.524979 -1.863191,-0.4133688 -0.108951,0.012986 -0.214238,0.029522 -0.316381,0.046653 l 0,0 z"
       clip-rule="evenodd" />
  </g>
</svg>
